<svg width="1000" height="1000" viewBox="0 0 1000 1000" fill="none" xmlns="http://www.w3.org/2000/svg">
<rect width="1000" height="1000" rx="200" fill="#121212"/>
<path d="M351.438 444.625C351.438 443.802 352.332 443.288 353.047 443.7L473.181 512.88C476.5 514.792 478.544 518.324 478.544 522.147L478.549 808L351.438 734.796V728C351.438 724.813 351.437 720.972 351.437 716.642C351.437 703.851 351.437 686.796 351.437 669.741C351.437 635.715 351.438 601.686 351.438 601.52V444.625Z" fill="white"/>
<path d="M486.59 194.584C494.888 189.805 505.112 189.805 513.41 194.584L761.59 337.512C769.888 342.291 775 351.122 775 360.68V646.536C775 656.093 769.888 664.925 761.59 669.704L521.46 807.995L521.459 711.792L680.739 620.064C687.377 616.241 691.472 609.174 691.472 601.52V405.705C691.472 398.033 687.361 390.975 680.739 387.161L510.733 289.255L510.107 288.908C503.799 285.549 496.215 285.542 489.895 288.907L489.266 289.255L319.26 387.161C312.62 390.986 308.527 398.054 308.527 405.705V638.475C308.527 648.179 308.526 658.96 308.526 669.741C308.526 684.023 308.526 698.305 308.526 710.083L238.41 669.704C230.112 664.925 225 656.093 225 646.536V360.68C225 351.122 230.112 342.291 238.41 337.512L486.59 194.584Z" fill="white"/>
<path d="M646.952 443.689C647.667 443.277 648.561 443.792 648.561 444.616V582.991C648.561 586.814 646.516 590.346 643.197 592.258L523.067 661.441C522.352 661.853 521.458 661.338 521.458 660.514L521.456 522.145C521.456 518.322 523.5 514.79 526.819 512.878L646.952 443.689Z" fill="white"/>
<path d="M494.635 335.587C497.954 333.676 502.044 333.676 505.363 335.587L625.491 404.77C626.206 405.182 626.206 406.212 625.491 406.624L505.363 475.811C502.044 477.722 497.954 477.722 494.635 475.811L374.499 406.628C373.783 406.216 373.783 405.186 374.499 404.774L494.635 335.587Z" fill="white"/>
</svg>
